<svg xmlns="http://www.w3.org/2000/svg" xmlns:xlink="http://www.w3.org/1999/xlink" width="0" height="0">
<symbol id="icon-msg"  viewBox="0 0 88 88" fill="none">

	<defs>
		<clipPath>
			<rect id="Chat_Conversation 1" rx="0.000000"  transform="translate(0.500000 0.500000)" fill="white" fill-opacity="0"/>
		</clipPath>
	</defs>
	<rect id="Chat_Conversation 1" rx="0.000000" transform="translate(0.500000 0.500000)" fill="#FFFFFF" fill-opacity="0"/>
	<g clip-path="url(#clip21_28)">
		<path id="Vector" d="M58.66 29.33L73.33 29.33C75.35 29.33 77 30.97 77 33L77 73.33L64.77 63.18C64.12 62.63 63.28 62.33 62.43 62.33L33 62.33C30.97 62.33 29.33 60.69 29.33 58.66L29.33 47.66M58.66 18.33C58.66 16.3 57.02 14.66 55 14.66L14.66 14.66C12.64 14.66 11 16.3 11 18.33L11 58.66L23.22 48.51C23.87 47.96 24.71 47.66 25.56 47.66L29.33 47.66L55 47.66C57.02 47.66 58.66 46.02 58.66 44L58.66 29.33L58.66 18.33Z" stroke="#FFFFFF" stroke-opacity="1.000000" stroke-width="2.000000" stroke-linejoin="round"/>
	</g>
</symbol>

<symbol id="icon-phone"  viewBox="0 0 92 87.0714" fill="none">

	<defs>
		<clipPath>
			<rect id="Phone 1" rx="0.000000"  transform="translate(0.500000 0.500000)" fill="white" fill-opacity="0"/>
		</clipPath>
	</defs>
	<rect id="Phone 1" rx="0.000000"  transform="translate(0.500000 0.500000)" fill="#FFFFFF" fill-opacity="0"/>
	<g clip-path="url(#clip21_32)">
		<path id="Vector" d="M29.3 10.88L18.76 10.88C14.75 10.88 11.5 13.96 11.5 17.75C11.5 50.02 39.14 76.18 73.23 76.18C77.24 76.18 80.5 73.1 80.5 69.31L80.5 59.33C80.5 56.36 78.59 53.69 75.68 52.59L65.57 48.77C62.96 47.78 59.98 48.22 57.82 49.93L55.21 51.99C52.16 54.39 47.68 54.2 44.88 51.54L37.53 44.59C34.73 41.93 34.52 37.69 37.06 34.81L39.23 32.34C41.04 30.3 41.51 27.48 40.47 25L36.42 15.44C35.26 12.69 32.44 10.88 29.3 10.88Z" stroke="#FFFFFF" stroke-opacity="1.000000" stroke-width="2.000000" stroke-linejoin="round"/>
	</g>
</symbol>

<symbol id="icon-tg" viewBox="0 0 83 75.1698" fill="none">

	<defs>
		<clipPath>
			<rect id="Paper_Plane 1" rx="0.000000"  transform="translate(0.500000 0.500000)" fill="white" fill-opacity="0"/>
		</clipPath>
	</defs>
	<rect id="Paper_Plane 1" rx="0.000000"  transform="translate(0.500000 0.500000)" fill="#FFFFFF" fill-opacity="0"/>
	<g clip-path="url(#clip21_24)">
		<path id="Vector" d="M35.64 42.88L52.4 27.7M55.4 60.08C54.13 63.81 53.5 65.68 52.4 66.3C51.46 66.83 50.28 66.92 49.25 66.53C48.06 66.09 47.09 64.34 45.16 60.85L36.2 44.61C35.9 44.06 35.74 43.78 35.54 43.54C35.36 43.33 35.15 43.14 34.91 42.97C34.65 42.79 34.35 42.66 33.77 42.39L15.81 34.26C11.95 32.51 10.02 31.64 9.53 30.56C9.1 29.62 9.2 28.56 9.79 27.7C10.47 26.71 12.53 26.14 16.65 24.99L62.63 12.17C65.87 11.27 67.49 10.82 68.59 11.18C69.54 11.5 70.29 12.18 70.64 13.04C71.04 14.04 70.54 15.5 69.55 18.43L69.55 18.44L55.4 60.08Z" stroke="#FFFFFF" stroke-opacity="1.000000" stroke-width="2.000000" stroke-linejoin="round" stroke-linecap="round"/>
	</g>
</symbol>

<symbol id="icon-clouds"  viewBox="0 0 121.254 93.9221" fill="none">

	<defs>
		<clipPath>
			<rect id="Chat_Conversation_Circle 1" rx="0.000000"  transform="translate(0.500000 0.500000)" fill="white" fill-opacity="0"/>
		</clipPath>
	</defs>
	<rect id="Chat_Conversation_Circle 1" rx="0.000000"  transform="translate(0.500000 0.500000)" fill="#FFFFFF" fill-opacity="0"/>
	<g clip-path="url(#clip21_36)">
		<path id="Vector" d="M68.2 36.98C68.2 20.46 54.35 7.07 37.26 7.07C20.17 7.07 6.31 20.46 6.31 36.98C6.31 42.87 8.07 48.36 11.11 52.99L8.92 59.33L8.92 59.34C8.08 61.77 7.66 62.98 7.96 63.79C8.22 64.5 8.79 65.05 9.52 65.3C10.36 65.59 11.61 65.19 14.1 64.38L14.14 64.37L20.7 62.26C25.49 65.2 31.17 66.9 37.26 66.9C37.84 66.9 38.42 66.88 39 66.85C55.28 65.98 68.2 52.94 68.2 36.98ZM39 66.85C43.23 78.49 54.71 86.84 68.2 86.84C74.29 86.84 79.97 85.14 84.76 82.2L91.32 84.32L91.33 84.32C93.84 85.13 95.1 85.53 95.94 85.25C96.67 84.99 97.24 84.44 97.5 83.73C97.8 82.92 97.38 81.71 96.54 79.27L94.35 72.93L95.09 71.76C97.67 67.39 99.15 62.32 99.15 56.93C99.15 40.41 85.29 27.01 68.2 27.01L67.04 27.03L66.46 27.06" stroke="#FFFFFF" stroke-opacity="1.000000" stroke-width="2.000000" stroke-linejoin="round" stroke-linecap="round"/>
	</g>
</symbol>


<symbol id="google" width="24.493164" height="23.841858" viewBox="0 0 24.4932 23.8419" fill="none">

	<defs/>
	<path d="M24.49 12.2C24.49 11.4 24.41 10.57 24.27 9.79L12.48 9.79L12.48 14.38L19.23 14.38C18.96 15.86 18.06 17.16 16.73 17.99L20.76 20.98C23.13 18.88 24.49 15.81 24.49 12.2Z" fill="#4280EF" fill-opacity="1.000000" fill-rule="nonzero"/>
	<path id="Vector" d="M12.48 23.84C15.86 23.84 18.69 22.77 20.76 20.95L16.73 17.99C15.61 18.72 14.17 19.14 12.48 19.14C9.22 19.14 6.47 17.03 5.46 14.23L1.32 17.27C3.45 21.29 7.75 23.84 12.48 23.84Z" fill="#34A353" fill-opacity="1.000000" fill-rule="nonzero"/>
	<path id="Vector" d="M5.46 14.2C4.94 12.72 4.94 11.11 5.46 9.63L1.32 6.57C-0.45 9.94 -0.45 13.92 1.32 17.27L5.46 14.2Z" fill="#F6B704" fill-opacity="1.000000" fill-rule="nonzero"/>
	<path id="Vector" d="M12.48 4.72C14.25 4.7 15.99 5.35 17.27 6.51L20.84 3.09C18.58 1.06 15.59 -0.03 12.48 0C7.75 0 3.45 2.54 1.32 6.57L5.46 9.63C6.47 6.8 9.22 4.72 12.48 4.72Z" fill="#E54335" fill-opacity="1.000000" fill-rule="nonzero"/>
</symbol>


<symbol id="logout" width="27.531914" height="27.531982" viewBox="0 0 27.5319 27.532" fill="none">

	<defs/>
	<path d="M13.76 18.55L18.55 13.76L13.76 8.97M18.55 13.76L1 13.76M8.97 6.18L8.97 6.1C8.97 4.31 8.97 3.42 9.32 2.74C9.63 2.14 10.12 1.65 10.72 1.34C11.4 1 12.29 1 14.08 1L21.42 1C23.21 1 24.1 1 24.78 1.34C25.38 1.65 25.87 2.14 26.18 2.74C26.53 3.42 26.53 4.31 26.53 6.1L26.53 21.43C26.53 23.21 26.53 24.1 26.18 24.78C25.87 25.38 25.38 25.87 24.78 26.18C24.1 26.53 23.21 26.53 21.43 26.53L14.08 26.53C12.29 26.53 11.4 26.53 10.72 26.18C10.12 25.87 9.63 25.38 9.32 24.78C8.97 24.1 8.97 23.21 8.97 21.42L8.97 21.34" stroke="#FFFFFF" stroke-opacity="1.000000" stroke-width="2.000000" stroke-linejoin="round" stroke-linecap="round"/>
</symbol>

<symbol id="settings" width="28.807716" height="27.533691" viewBox="0 0 28.8077 27.5337" fill="none">

	<defs/>
	<path d="M25.6 9.6L25.6 9.6C26.4 10.05 26.8 10.27 27.09 10.59C27.35 10.87 27.54 11.21 27.66 11.57C27.8 11.98 27.8 12.45 27.8 13.37L27.8 14.15C27.8 15.07 27.81 15.53 27.67 15.95C27.55 16.31 27.36 16.65 27.1 16.93C26.8 17.26 26.4 17.48 25.59 17.93L25.11 18.2L25.1 18.21C25.03 18.25 24.99 18.27 24.96 18.29C24.59 18.51 24.28 18.82 24.05 19.19C24.03 19.22 24.01 19.26 23.97 19.34C23.92 19.41 23.9 19.45 23.88 19.49C23.68 19.87 23.57 20.3 23.56 20.73C23.56 20.77 23.56 20.81 23.56 20.9L23.57 21.5C23.59 22.41 23.6 22.87 23.47 23.28C23.36 23.65 23.17 23.99 22.91 24.27C22.63 24.6 22.23 24.83 21.44 25.29L20.78 25.68C19.98 26.15 19.59 26.38 19.16 26.47C18.79 26.55 18.4 26.55 18.03 26.46C17.61 26.37 17.21 26.13 16.42 25.65L15.92 25.34C15.86 25.31 15.83 25.29 15.79 25.27C15.42 25.06 15 24.94 14.57 24.93C14.53 24.93 14.49 24.93 14.4 24.93C14.31 24.93 14.27 24.93 14.22 24.93C13.8 24.94 13.38 25.06 13.01 25.27C12.97 25.29 12.93 25.31 12.86 25.36L12.38 25.64C11.6 26.12 11.2 26.36 10.78 26.45C10.41 26.54 10.02 26.54 9.65 26.46C9.23 26.37 8.83 26.14 8.04 25.68L7.37 25.3C6.58 24.83 6.18 24.6 5.89 24.27C5.64 23.99 5.45 23.65 5.33 23.28C5.2 22.86 5.21 22.4 5.22 21.47L5.23 20.92C5.24 20.82 5.24 20.78 5.24 20.73C5.23 20.3 5.12 19.89 4.93 19.51C4.91 19.47 4.88 19.43 4.84 19.35C4.79 19.27 4.77 19.23 4.74 19.19C4.52 18.82 4.21 18.51 3.84 18.29C3.81 18.27 3.76 18.24 3.68 18.2L3.2 17.93C2.4 17.48 2 17.25 1.71 16.93C1.45 16.65 1.26 16.32 1.14 15.95C1 15.54 1 15.08 1 14.15L1 13.39C0.99 12.46 0.99 11.99 1.13 11.58C1.25 11.21 1.44 10.87 1.7 10.59C2 10.27 2.4 10.04 3.21 9.59L3.69 9.32C3.77 9.28 3.81 9.26 3.84 9.23C4.21 9.01 4.52 8.7 4.75 8.34C4.77 8.3 4.79 8.26 4.83 8.19C4.88 8.11 4.9 8.07 4.92 8.04C5.12 7.65 5.23 7.23 5.24 6.8C5.24 6.75 5.24 6.71 5.23 6.62L5.22 6.05C5.21 5.12 5.2 4.66 5.33 4.24C5.44 3.88 5.63 3.54 5.89 3.25C6.17 2.92 6.57 2.69 7.35 2.23L7.36 2.23L8.02 1.84L8.02 1.84C8.81 1.38 9.21 1.14 9.64 1.05C10.01 0.97 10.4 0.98 10.77 1.06C11.19 1.16 11.59 1.4 12.38 1.88L12.86 2.17C12.93 2.21 12.97 2.23 13.01 2.26C13.38 2.47 13.8 2.58 14.23 2.6C14.27 2.6 14.31 2.6 14.4 2.6C14.49 2.6 14.53 2.6 14.57 2.6C15 2.58 15.42 2.47 15.79 2.26C15.83 2.24 15.87 2.21 15.94 2.17L16.42 1.88L16.42 1.88C17.21 1.4 17.6 1.17 18.02 1.07C18.39 0.99 18.78 0.98 19.15 1.06C19.57 1.15 19.97 1.38 20.76 1.84L21.43 2.23C22.22 2.69 22.62 2.92 22.91 3.25C23.16 3.54 23.35 3.88 23.47 4.25C23.6 4.66 23.59 5.12 23.57 6.04L23.56 6.62C23.56 6.71 23.56 6.75 23.56 6.8C23.57 7.23 23.68 7.65 23.88 8.03C23.9 8.07 23.92 8.11 23.97 8.19C24.01 8.26 24.03 8.3 24.05 8.34C24.28 8.71 24.59 9.01 24.95 9.23C24.99 9.26 25.03 9.28 25.1 9.32L25.6 9.6ZM9.04 13.76C9.04 10.77 11.44 8.35 14.4 8.35C17.36 8.35 19.76 10.77 19.76 13.76C19.76 16.75 17.36 19.18 14.4 19.18C11.44 19.18 9.04 16.75 9.04 13.76Z" stroke="#FFFFFF" stroke-opacity="1.000000" stroke-width="2.000000" stroke-linejoin="round"/>
</symbol>


</svg>
